<?xml version="1.0" encoding="UTF-8"?>
<svg version="1.1" xmlns="http://www.w3.org/2000/svg" width="1024" height="1024">
<path d="M0 0 C337.92 0 675.84 0 1024 0 C1024 337.92 1024 675.84 1024 1024 C686.08 1024 348.16 1024 0 1024 C0 686.08 0 348.16 0 0 Z " fill="#FEFEFE" transform="translate(0,0)"/>
<path d="M0 0 C10.89 0 21.78 0 33 0 C33 80.52 33 161.04 33 244 C93.06 244 153.12 244 215 244 C215 254.89 215 265.78 215 277 C144.05 277 73.1 277 0 277 C0 185.59 0 94.18 0 0 Z " fill="#020202" transform="translate(405,333)"/>
<path d="M0 0 C16.83 0 33.66 0 51 0 C51 21.78 51 43.56 51 66 C54.63 66.99 58.26 67.98 62 69 C64.51339219 69.81236231 67.01852562 70.65104948 69.51171875 71.5234375 C70.49686211 71.86551743 70.49686211 71.86551743 71.50190735 72.21450806 C73.56499022 72.93123114 75.6263902 73.65262452 77.6875 74.375 C79.73089018 75.0898316 81.77468605 75.80341788 83.8195343 76.5140686 C85.68751532 77.16341662 87.55414011 77.81666246 89.4206543 78.47021484 C96.24666078 80.75052388 103.13078235 82.85336948 110 85 C110 99.19 110 113.38 110 128 C105.3426114 130.3286943 101.72812591 131.77207544 96.8125 133.125 C87.60931996 135.71784315 78.57327262 138.77601377 69.53051758 141.87744141 C68.42732178 142.25175293 67.32412598 142.62606445 66.1875 143.01171875 C64.72376953 143.51384888 64.72376953 143.51384888 63.23046875 144.02612305 C59.21342756 145.23712496 55.09570046 146.08984434 51 147 C51 166.47 51 185.94 51 206 C34.17 206 17.34 206 0 206 C0 195.11 0 184.22 0 173 C7.59 173 15.18 173 23 173 C23 157.49 23 141.98 23 126 C25.97 125.01 28.94 124.02 32 123 C34.88598449 121.95721231 34.88598449 121.95721231 37.76953125 120.90771484 C45.94734444 117.9337813 54.19616075 115.42279928 62.60449219 113.18041992 C68.33996896 111.61433032 73.63714014 109.56646524 79 107 C64.57023621 101.21150855 49.93087988 96.28386785 35.11572266 91.59448242 C34.38787567 91.36314606 33.66002869 91.13180969 32.91012573 90.89346313 C31.52786246 90.4546928 30.14469336 90.01876336 28.76052856 89.58602905 C24.1114184 88.1114184 24.1114184 88.1114184 23 87 C22.90653085 85.34261557 22.88255023 83.68125356 22.88647461 82.02124023 C22.88655014 80.96021591 22.88662567 79.89919159 22.88670349 78.80601501 C22.89186478 77.651866 22.89702606 76.49771698 22.90234375 75.30859375 C22.9037587 74.13361832 22.90517365 72.95864288 22.90663147 71.74806213 C22.91225008 67.97784936 22.92480574 64.20769496 22.9375 60.4375 C22.9425126 57.88867273 22.94707592 55.33984453 22.95117188 52.79101562 C22.96222556 46.5273211 22.97950266 40.26367046 23 34 C15.41 34 7.82 34 0 34 C0 22.78 0 11.56 0 0 Z " fill="#040404" transform="translate(646,371)"/>
<path d="M0 0 C16.5 0 33 0 50 0 C50 10.89 50 21.78 50 33 C42.41 33 34.82 33 27 33 C27 50.82 27 68.64 27 87 C6.3125 93.6875 6.3125 93.6875 -0.1315918 95.7644043 C-9.86698788 98.91587628 -19.51510377 102.14644465 -29 106 C-28.45327637 106.18139526 -27.90655273 106.36279053 -27.34326172 106.54968262 C-21.92782669 108.35010968 -16.52318975 110.17982613 -11.125 112.03125 C-10.31562988 112.30843872 -9.50625977 112.58562744 -8.67236328 112.87121582 C-5.25469642 114.04169257 -1.83732207 115.21302228 1.58007812 116.38427734 C4.09494987 117.24606692 6.60997194 118.10741673 9.125 118.96875 C10.25977783 119.35794617 10.25977783 119.35794617 11.41748047 119.75500488 C16.6030989 121.53088204 21.79958291 123.26652764 27 125 C27 140.51 27 156.02 27 172 C34.59 172 42.18 172 50 172 C50 182.89 50 193.78 50 205 C33.5 205 17 205 0 205 C-0.33 185.53 -0.66 166.06 -1 146 C-7.6 144.02 -14.2 142.04 -21 140 C-25.13563567 138.64713199 -29.25979959 137.28542835 -33.375 135.875 C-41.85952911 132.9690196 -50.35685589 130.46946974 -59 128 C-59 113.48 -59 98.96 -59 84 C-54.71 82.68 -50.42 81.36 -46 80 C-42.29077208 78.54770087 -42.29077208 78.54770087 -38.609375 77.02734375 C-31.14075587 74.08685448 -23.39186011 71.81873846 -15.75 69.375 C-14.78320312 69.06304687 -13.81640625 68.75109375 -12.8203125 68.4296875 C-11.88445312 68.130625 -10.94859375 67.8315625 -9.984375 67.5234375 C-9.14616211 67.25450684 -8.30794922 66.98557617 -7.44433594 66.70849609 C-4.99902749 65.99971812 -2.49651673 65.49930335 0 65 C0 43.55 0 22.1 0 0 Z " fill="#020202" transform="translate(328,372)"/>
<path d="M0 0 C11.55 0 23.1 0 35 0 C31.68271955 13.26912181 31.68271955 13.26912181 29.625 19.0625 C27.63368302 24.81250343 26.00113766 30.60406489 24.5 36.5 C23.04986391 42.18756141 21.47895324 47.75907161 19.5625 53.3125 C17.41432304 59.54086214 15.63846998 65.82313066 13.9375 72.1875 C12.14355195 78.89624223 10.28376054 85.52984504 7.9921875 92.08959961 C4.71319065 101.70793659 1.94011478 111.50576691 -0.9375 121.25 C-1.2866748 122.43021729 -1.63584961 123.61043457 -1.99560547 124.82641602 C-3.87888238 131.19478531 -5.75529659 137.5651346 -7.625 143.9375 C-10.86179154 154.967219 -14.17784544 165.97347664 -17.50390625 176.9765625 C-21.11852837 188.95272013 -24.58474774 200.96530157 -28 213 C-39.55 213 -51.1 213 -63 213 C-60.74719216 202.86236471 -60.74719216 202.86236471 -59.73828125 199.3359375 C-59.51019775 198.53631592 -59.28211426 197.73669434 -59.04711914 196.9128418 C-58.80469482 196.075354 -58.56227051 195.23786621 -58.3125 194.375 C-58.05267334 193.47112549 -57.79284668 192.56725098 -57.52514648 191.63598633 C-55.31738228 184.0002827 -53.00595772 176.39754194 -50.67700195 168.7980957 C-48.5669542 161.90072908 -46.5144787 154.9883623 -44.5 148.0625 C-44.21133057 147.07032471 -43.92266113 146.07814941 -43.62524414 145.0559082 C-42.16068017 140.01429483 -40.70321524 134.97067635 -39.25 129.92578125 C-36.14699114 119.18293267 -32.91585349 108.49976987 -29.48217773 97.85791016 C-27.71643813 92.35181909 -26.07332893 86.83114232 -24.5625 81.25 C-20.66629395 66.87020492 -16.31268518 52.57850507 -11.4375 38.5 C-8.68280791 30.42331774 -6.56600488 22.17337734 -4.40991211 13.91992188 C-4.12639893 12.84033203 -3.84288574 11.76074219 -3.55078125 10.6484375 C-3.29981689 9.68083496 -3.04885254 8.71323242 -2.7902832 7.71630859 C-2 5 -2 5 0 0 Z " fill="#030303" transform="translate(526,334)"/>
<path d="M0 0 C6.02936691 1.9272586 11.88954875 4.10000052 17.72265625 6.5546875 C18.93988373 7.06208969 18.93988373 7.06208969 20.18170166 7.57974243 C21.91437866 8.30225066 23.64649334 9.02610866 25.37808228 9.7512207 C29.94174369 11.66170884 34.51018991 13.56069578 39.078125 15.4609375 C40.45566704 16.03439911 40.45566704 16.03439911 41.86103821 16.6194458 C49.97434129 19.99491264 58.09942816 23.34078704 66.23800659 26.65484619 C67.61321393 27.2151091 68.98799587 27.77641739 70.36233521 28.33880615 C72.25736771 29.11402159 74.15403423 29.88523904 76.05078125 30.65625 C77.10950439 31.08744141 78.16822754 31.51863281 79.2590332 31.96289062 C81.5077083 32.81372983 83.65523146 33.49089446 86 34 C86 34.66 86 35.32 86 36 C82.04533792 38.17341896 78.08568659 40.33758201 74.125 42.5 C72.43310547 43.43005859 72.43310547 43.43005859 70.70703125 44.37890625 C69.63066406 44.96542969 68.55429687 45.55195313 67.4453125 46.15625 C66.45031738 46.70087891 65.45532227 47.24550781 64.43017578 47.80664062 C62 49 62 49 60 49 C60 49.66 60 50.32 60 51 C60.99 51.33 61.98 51.66 63 52 C64.65625 53.828125 64.65625 53.828125 66.5 56.25 C70.26194857 61.09176715 74.16357424 65.78170235 78.14257812 70.44433594 C79.43287729 71.95907578 80.71658041 73.47942679 82 75 C82.76828125 75.89074219 83.5365625 76.78148437 84.328125 77.69921875 C86 80 86 80 86 83 C84.48706055 84.53393555 84.48706055 84.53393555 82.38671875 86.13671875 C81.63326172 86.71357422 80.87980469 87.29042969 80.10351562 87.88476562 C79.30623047 88.47966797 78.50894531 89.07457031 77.6875 89.6875 C76.90181641 90.29400391 76.11613281 90.90050781 75.30664062 91.52539062 C69.39250562 96 69.39250562 96 66 96 C64.1953125 94.12109375 64.1953125 94.12109375 62.125 91.4375 C58.26025511 86.55905153 54.3125587 81.77790808 50.25 77.0625 C49.70746582 76.4243335 49.16493164 75.78616699 48.60595703 75.12866211 C45.63743016 71.68755888 42.67699895 68.71689367 39 66 C38.77570312 66.79664063 38.55140625 67.59328125 38.3203125 68.4140625 C36.62416353 73.02076296 34.29929908 77.11719741 31.875 81.375 C31.40707031 82.20644531 30.93914063 83.03789063 30.45703125 83.89453125 C29.30929451 85.93234954 28.15686718 87.96735569 27 90 C26.34 90 25.68 90 25 90 C20.73326817 75.54792082 16.61251362 61.06653429 12.68212891 46.51953125 C11.6530141 42.71836276 10.61249746 38.92045094 9.5625 35.125 C9.36873779 34.42455566 9.17497559 33.72411133 8.9753418 33.00244141 C6.81250228 25.24191969 4.52946095 17.51583786 2.23461914 9.79345703 C1.94449951 8.80974121 1.65437988 7.82602539 1.35546875 6.8125 C1.09403076 5.93207031 0.83259277 5.05164063 0.56323242 4.14453125 C0 2 0 2 0 0 Z " fill="#030303" transform="translate(550,442)"/>
<path d="M0 0 C6.1875 -0.1546875 6.1875 -0.1546875 12.5 -0.3125 C13.78455078 -0.35802002 15.06910156 -0.40354004 16.39257812 -0.45043945 C23.48831293 -0.53599008 28.65558121 0.04505662 34 5 C37.0148739 9.33388123 37.6300729 12.779396 37 18 C35.52424255 21.81756975 33.90508351 25.09491649 31 28 C30.01 28 29.02 28 28 28 C28.30292969 28.50974365 28.60585938 29.0194873 28.91796875 29.54467773 C30.28090053 31.84095568 31.64049064 34.13919431 33 36.4375 C33.47695313 37.23994141 33.95390625 38.04238281 34.4453125 38.86914062 C34.89648438 39.63291016 35.34765625 40.39667969 35.8125 41.18359375 C36.23144531 41.89056396 36.65039062 42.59753418 37.08203125 43.32592773 C38 45 38 45 38 46 C34.20030374 46.54764305 30.77813371 46.77019806 27 46 C23.4230342 42.66529881 21.6478996 38.35213829 19.5625 34 C17.69320395 31.13112543 17.69320395 31.13112543 11 31 C11 35.95 11 40.9 11 46 C7.37 46 3.74 46 0 46 C0 30.82 0 15.64 0 0 Z " fill="#0C0C0C" transform="translate(462,644)"/>
<path d="M0 0 C12 0 12 0 14.58398438 2.00024414 C15.08220703 2.91926514 15.58042969 3.83828613 16.09375 4.78515625 C16.66867187 5.79126953 17.24359375 6.79738281 17.8359375 7.83398438 C18.38507812 8.89939453 18.93421875 9.96480469 19.5 11.0625 C20.08007812 12.10083984 20.66015625 13.13917969 21.2578125 14.20898438 C22.34264684 16.15945708 23.40944209 18.12016325 24.45117188 20.09399414 C26.23129475 23.43396933 28.12224214 26.71392374 30 30 C30.33 20.1 30.66 10.2 31 0 C34.3 0 37.6 0 41 0 C41 15.51 41 31.02 41 47 C37.04 47 33.08 47 29 47 C25.89537935 43.5132236 24.13714037 41.03088363 22.0625 37 C21.53849609 36.06542969 21.01449219 35.13085938 20.47460938 34.16796875 C19.48555662 32.40224411 18.5149564 30.62594251 17.57055664 28.8359375 C15.52408065 25.14063748 13.23878643 21.58205829 11 18 C10.67 27.24 10.34 36.48 10 46 C6.7 46 3.4 46 0 46 C0 30.82 0 15.64 0 0 Z " fill="#090909" transform="translate(591,644)"/>
<path d="M0 0 C4.62 0 9.24 0 14 0 C17.33631644 7.99801886 20.03368419 16.10870255 22.625 24.375 C23.4058276 26.86293107 24.18955599 29.3499541 24.9765625 31.8359375 C25.31768066 32.92438965 25.65879883 34.0128418 26.01025391 35.13427734 C26.89557467 37.93339393 26.89557467 37.93339393 28.12646484 40.13525391 C29 42 29 42 29 46 C25.37 46 21.74 46 18 46 C17.34 43.03 16.68 40.06 16 37 C10.06 37 4.12 37 -2 37 C-2.66 39.97 -3.32 42.94 -4 46 C-7.63 46 -11.26 46 -15 46 C-12.2049236 36.36924554 -8.99788538 26.88174865 -5.8125 17.375 C-5.24790657 15.68624482 -4.6834523 13.9974431 -4.11914062 12.30859375 C-2.74769783 8.20519085 -1.37437208 4.10242266 0 0 Z " fill="#0A0A0A" transform="translate(336,644)"/>
<path d="M0 0 C3.63 0 7.26 0 11 0 C11.01458252 0.98395752 11.02916504 1.96791504 11.04418945 2.98168945 C11.10216998 6.63293774 11.17940185 10.28356911 11.26245117 13.93432617 C11.29570188 15.51430243 11.32373346 17.09439752 11.34643555 18.67456055 C11.37998016 20.94631579 11.43229227 23.21698203 11.48828125 25.48828125 C11.49467117 26.19463211 11.5010611 26.90098297 11.50764465 27.6287384 C11.62019319 31.53099328 11.62019319 31.53099328 13.40698242 34.90698242 C16.70666932 37.17099748 19.00914914 37.31926807 23 37 C25.29001517 36.06448776 25.29001517 36.06448776 27 34 C27.42646001 31.29571712 27.6048041 28.9787448 27.609375 26.26953125 C27.62591125 25.51911057 27.64244751 24.76868988 27.65948486 23.99552917 C27.70803052 21.60110344 27.72934885 19.20731298 27.75 16.8125 C27.77815443 15.18811897 27.80808112 13.56376761 27.83984375 11.93945312 C27.91379039 7.95968773 27.96332417 3.98027633 28 0 C31.63 0 35.26 0 39 0 C39.07445407 4.73222455 39.1287447 9.46410411 39.16479492 14.19677734 C39.17983176 15.80491072 39.20026672 17.41300344 39.22631836 19.02099609 C39.26292822 21.33962064 39.27977722 23.65770049 39.29296875 25.9765625 C39.30845261 26.68930328 39.32393646 27.40204407 39.33988953 28.13638306 C39.34194364 34.30300097 37.61074737 38.13492409 33.625 42.75 C28.18742325 47.41078007 23.02206034 47.37880499 16.09765625 47.24609375 C10.56727038 46.80673144 8.02200833 45.06846325 4.25 41.125 C0.45399069 35.85276485 -0.29039086 31.70389417 -0.1953125 25.29296875 C-0.1924826 24.56757401 -0.18965271 23.84217926 -0.18673706 23.09480286 C-0.17559799 20.79219632 -0.15050566 18.48998773 -0.125 16.1875 C-0.11496206 14.62044835 -0.10583763 13.05339057 -0.09765625 11.48632812 C-0.0756793 7.65740022 -0.04119339 3.82876744 0 0 Z " fill="#0D0D0D" transform="translate(393,644)"/>
<path d="M0 0 C10.56 0 21.12 0 32 0 C32 2.97 32 5.94 32 9 C24.74 9 17.48 9 10 9 C10 12.3 10 15.6 10 19 C15.94 19 21.88 19 28 19 C28 21.97 28 24.94 28 28 C22.39 28 16.78 28 11 28 C11 30.97 11 33.94 11 37 C17.93 37 24.86 37 32 37 C32 39.97 32 42.94 32 46 C21.44 46 10.88 46 0 46 C0 30.82 0 15.64 0 0 Z " fill="#0A0A0A" transform="translate(529,644)"/>
<path d="M0 0 C10.56 0 21.12 0 32 0 C32 2.97 32 5.94 32 9 C24.74 9 17.48 9 10 9 C10 12.3 10 15.6 10 19 C15.94 19 21.88 19 28 19 C28 21.64 28 24.28 28 27 C22.06 27 16.12 27 10 27 C10 30.63 10 34.26 10 38 C17.26 38 24.52 38 32 38 C32 40.64 32 43.28 32 46 C21.44 46 10.88 46 0 46 C0 30.82 0 15.64 0 0 Z " fill="#050505" transform="translate(728,644)"/>
<path d="M0 0 C0 3.3 0 6.6 0 10 C-2.76276177 9.47731534 -5.3260876 8.89130413 -8 8 C-13.35997748 7.41919749 -17.57006587 6.97861848 -22.0625 10.1875 C-25.61623929 15.34615381 -26.77769174 19.70440017 -26 26 C-24.70947248 29.79988659 -23.67640443 31.50506993 -20.4375 33.875 C-13.83636885 36.0353702 -7.41922541 35.70283175 -1 33 C-1 35.97 -1 38.94 -1 42 C-5.67083956 44.72465641 -9.11166563 45.4078557 -14.5 45.375 C-15.7684375 45.38273438 -17.036875 45.39046875 -18.34375 45.3984375 C-24.8319105 44.69139437 -29.07772876 41.62911699 -33.453125 37.01171875 C-37.60165207 31.61653835 -38.59871418 25.15932595 -38.33984375 18.48046875 C-37.31912313 11.03038147 -33.89205483 6.05465712 -28.05859375 1.44140625 C-19.47708113 -4.56728096 -9.16109991 -4.99696359 0 0 Z " fill="#0B0B0B" transform="translate(699,646)"/>
<path d="M0 0 C3.63 0 7.26 0 11 0 C11 12.21 11 24.42 11 37 C17.6 37 24.2 37 31 37 C31 39.97 31 42.94 31 46 C30 47 30 47 27.13256836 47.11352539 C25.88096924 47.10828857 24.62937012 47.10305176 23.33984375 47.09765625 C22.12417725 47.09515869 20.90851074 47.09266113 19.65600586 47.09008789 C18.09889893 47.08098389 16.54179199 47.07187988 14.9375 47.0625 C10.008125 47.041875 5.07875 47.02125 0 47 C0 31.49 0 15.98 0 0 Z " fill="#161616" transform="translate(265,644)"/>
<path d="M0 0 C10.33536091 -0.36912003 10.33536091 -0.36912003 13.328125 1.29296875 C15 3 15 3 15.5 6.5 C15 10 15 10 13.328125 11.70703125 C9.1106498 14.04928677 4.72527932 13.16875998 0 13 C0 8.71 0 4.42 0 0 Z " fill="#F6F6F6" transform="translate(473,653)"/>
<path d="M0 0 C0.66 0 1.32 0 2 0 C2.83719383 2.29032311 3.6698929 4.58210957 4.5 6.875 C4.73847656 7.52597656 4.97695313 8.17695312 5.22265625 8.84765625 C7 13.7734375 7 13.7734375 7 16 C3.37 16 -0.26 16 -4 16 C-2.83672541 10.59908226 -1.57704144 5.29435341 0 0 Z " fill="#E6E6E6" transform="translate(342,656)"/>
</svg>
